<svg version="1.1" id="Layer_1" xmlns="http://www.w3.org/2000/svg" xmlns:xlink="http://www.w3.org/1999/xlink" x="0px" y="0px"
	 width="100%" viewBox="0 0 800 600" enable-background="new 0 0 800 600" xml:space="preserve">
<path fill="#0D2438" opacity="1.000000" stroke="none" 
	d="
M588.000000,601.000000 
	C392.000000,601.000000 196.500000,601.000000 1.000000,601.000000 
	C1.000000,401.000000 1.000000,201.000000 1.000000,1.000000 
	C267.666656,1.000000 534.333313,1.000000 801.000000,1.000000 
	C801.000000,201.000000 801.000000,401.000000 801.000000,601.000000 
	C730.166687,601.000000 659.333313,601.000000 588.000000,601.000000 
M276.312439,185.021317 
	C266.993103,185.154282 257.475830,184.116318 248.393570,185.651733 
	C226.034241,189.431702 210.449585,202.680099 201.760010,223.503601 
	C172.364670,293.945923 143.159119,364.467560 113.960030,434.991577 
	C109.894417,444.811096 105.602592,454.618042 102.625557,464.785126 
	C99.442917,475.654480 103.953270,486.377258 113.028267,490.257812 
	C117.889107,492.336365 123.629349,493.166351 128.976028,493.179077 
	C204.432465,493.359039 279.889465,493.287231 355.346344,493.309570 
	C380.633362,493.317047 397.969543,480.777588 410.472443,459.021881 
	C455.129730,459.004242 499.787170,459.053955 544.444214,458.942078 
	C568.832642,458.880920 587.031738,447.196381 597.414734,425.950165 
	C608.941711,402.362976 618.124207,377.625549 628.218506,353.343658 
	C651.157654,298.163330 674.104309,242.985718 696.803040,187.706467 
	C698.831909,182.765518 700.001038,177.085815 699.963196,171.760651 
	C699.879211,159.939850 691.796631,151.535645 680.005249,151.003784 
	C666.700562,150.403687 653.355225,150.707031 640.027588,150.610580 
	C626.039062,150.509338 612.050476,150.399994 598.239319,149.642914 
	C603.783752,132.002411 596.858398,118.862236 580.618286,116.399704 
	C578.001099,116.002861 575.298950,116.082947 572.636108,116.082420 
	C496.971222,116.067390 421.306152,115.981392 345.641510,116.122314 
	C321.677124,116.166946 304.463196,128.241608 293.355377,148.663986 
	C287.030823,160.292099 282.587402,172.943405 276.312439,185.021317 
z"/>
<path fill="#336AFF" opacity="1.000000" stroke="none" 
	d="
M598.061951,150.294189 
	C612.050476,150.399994 626.039062,150.509338 640.027588,150.610580 
	C653.355225,150.707031 666.700562,150.403687 680.005249,151.003784 
	C691.796631,151.535645 699.879211,159.939850 699.963196,171.760651 
	C700.001038,177.085815 698.831909,182.765518 696.803040,187.706467 
	C674.104309,242.985718 651.157654,298.163330 628.218506,353.343658 
	C618.124207,377.625549 608.941711,402.362976 597.414734,425.950165 
	C587.031738,447.196381 568.832642,458.880920 544.444214,458.942078 
	C499.787170,459.053955 455.129730,459.004242 409.541534,459.049988 
	C386.146698,459.048279 363.682770,459.022339 341.218842,458.986633 
	C331.900665,458.971832 322.572449,459.201050 313.266724,458.847260 
	C299.580780,458.326996 291.034882,450.236450 290.612091,437.251862 
	C290.474335,433.021240 291.835205,428.741882 292.689301,424.179688 
	C299.908478,406.962280 306.966095,390.057068 313.986450,373.136353 
	C339.259613,312.222260 364.745941,251.395096 389.667572,190.337448 
	C398.852203,167.835236 422.307190,149.829208 448.631165,150.364319 
	C495.932037,151.325806 543.266541,150.640747 590.586975,150.620987 
	C593.078674,150.619949 595.570312,150.407974 598.061951,150.294189 
z"/>
<path fill="#4DFDFF" opacity="1.000000" stroke="none" 
	d="
M598.150635,149.968552 
	C595.570312,150.407974 593.078674,150.619949 590.586975,150.620987 
	C543.266541,150.640747 495.932037,151.325806 448.631165,150.364319 
	C422.307190,149.829208 398.852203,167.835236 389.667572,190.337448 
	C364.745941,251.395096 339.259613,312.222260 313.986450,373.136353 
	C306.966095,390.057068 299.908478,406.962280 292.182861,424.133240 
	C288.332764,424.331360 285.167816,424.222534 282.002716,424.218140 
	C258.837219,424.186035 235.669327,424.371643 212.507111,424.087158 
	C197.382233,423.901428 187.930374,411.890350 190.894104,397.067810 
	C191.704330,393.015503 193.075638,389.016205 194.658737,385.186554 
	C213.884293,338.678558 233.225922,292.218536 252.475128,245.720276 
	C260.822937,225.555435 269.027374,205.331223 277.296906,185.133957 
	C282.587402,172.943405 287.030823,160.292099 293.355377,148.663986 
	C304.463196,128.241608 321.677124,116.166946 345.641510,116.122314 
	C421.306152,115.981392 496.971222,116.067390 572.636108,116.082420 
	C575.298950,116.082947 578.001099,116.002861 580.618286,116.399704 
	C596.858398,118.862236 603.783752,132.002411 598.150635,149.968552 
z"/>
<path fill="#74BAFF" opacity="1.000000" stroke="none" 
	d="
M276.804688,185.077637 
	C269.027374,205.331223 260.822937,225.555435 252.475128,245.720276 
	C233.225922,292.218536 213.884293,338.678558 194.658737,385.186554 
	C193.075638,389.016205 191.704330,393.015503 190.894104,397.067810 
	C187.930374,411.890350 197.382233,423.901428 212.507111,424.087158 
	C235.669327,424.371643 258.837219,424.186035 282.002716,424.218140 
	C285.167816,424.222534 288.332764,424.331360 292.004211,424.438324 
	C291.835205,428.741882 290.474335,433.021240 290.612091,437.251862 
	C291.034882,450.236450 299.580780,458.326996 313.266724,458.847260 
	C322.572449,459.201050 331.900665,458.971832 341.218842,458.986633 
	C363.682770,459.022339 386.146698,459.048279 409.116760,459.119537 
	C397.969543,480.777588 380.633362,493.317047 355.346344,493.309570 
	C279.889465,493.287231 204.432465,493.359039 128.976028,493.179077 
	C123.629349,493.166351 117.889107,492.336365 113.028267,490.257812 
	C103.953270,486.377258 99.442917,475.654480 102.625557,464.785126 
	C105.602592,454.618042 109.894417,444.811096 113.960030,434.991577 
	C143.159119,364.467560 172.364670,293.945923 201.760010,223.503601 
	C210.449585,202.680099 226.034241,189.431702 248.393570,185.651733 
	C257.475830,184.116318 266.993103,185.154282 276.804688,185.077637 
z"/>
</svg>