
        <svg xmlns="http://www.w3.org/2000/svg" xmlns:xlink="http://www.w3.org/1999/xlink" version="1.1" width="3171.4285714285716" height="2316.2736596860555" viewBox="0 0 3171.4285714285716 2316.2736596860555">
			
			<g transform="scale(8.571428571428571) translate(10, 10)">
				<defs id="SvgjsDefs1873"/><g id="SvgjsG1874" featureKey="1p4tPl-0" transform="matrix(2.592592477798462,0,0,2.592592477798462,45.37037037037038,-33.73222139146592)" fill="#000"><path xmlns="http://www.w3.org/2000/svg" d="M76.018,22.577L50,13.011l-26.039,9.558L23,22.921v1.427v0.291v15.71v1.427v0.291v17.698v17.428l26,9.433l1,0.363l1-0.363  l26-9.433V59.765V42.286v-0.471v-1.45V24.858v-0.471v-1.45L76.018,22.577z M75,40.374l-1.9,0.689L51,49.081V33.782l24-8.672V40.374z   M51,51.209l24-8.672v15.825L51,67.07V51.209z M50,15.142l23.1,8.493L50,32.016l-12.297-4.461l-10.824-3.928L50,15.142z   M42.096,31.277L49,33.782v15.299l-11.297-4.098l-10.824-3.928L25,40.374V25.075L42.096,31.277z M49,67.07l-24-8.707v-15.86  l17.096,6.202L49,51.209V67.07z M49,84.498L25,75.79v-15.3l24,8.707V84.498z M75,75.79l-24,8.707v-15.3l24-8.707V75.79z"/></g><g id="SvgjsG1875" featureKey="dYASrj-0" transform="matrix(2.505368709564209,0,0,2.505368709564209,-0.0000011946528920321049,198.57122581298927)" fill="#000"><path d="M7.64 5.359999999999999 c4.2 0 7.62 3.42 7.62 7.64 s-3.42 7.62 -7.62 7.62 c-4.22 0 -7.64 -3.4 -7.64 -7.62 s3.42 -7.64 7.64 -7.64 z M7.64 19.08 c3.36 0 6.08 -2.72 6.08 -6.08 s-2.72 -6.1 -6.08 -6.1 c-3.38 0 -6.1 2.74 -6.1 6.1 s2.72 6.08 6.1 6.08 z M7.64 8.44 c2.5 0 4.54 2.06 4.54 4.56 s-2.04 4.54 -4.54 4.54 s-4.56 -2.04 -4.56 -4.54 s2.06 -4.56 4.56 -4.56 z M7.64 16 c1.66 0 3 -1.34 3 -3 c0 -1.68 -1.34 -3.02 -3 -3.02 c-1.68 0 -3.02 1.34 -3.02 3.02 c0 1.66 1.34 3 3.02 3 z M29.799999999999997 13.780000000000001 c-7.94 0 -8.06 -0.02 -8.16 -0.02 l-0.04 0 c-2 -0.16 -3.54 -1.86 -3.54 -3.88 c0 -2.16 1.74 -3.9 3.9 -3.9 l8.4 0 c1.68 0 3.04 1.36 3.04 3.06 l0 1.62 l-11.38 0 l-0.02 0 l-0.02 0 c-0.46 -0.02 -0.76 -0.36 -0.76 -0.78 s0.32 -0.76 0.74 -0.78 l9.88 0 l0 -0.04 c0 -0.86 -0.66 -1.52 -1.52 -1.52 l-8.36 0 c-1.28 0 -2.34 1.04 -2.34 2.34 c0 1.2 0.9 2.16 2.04 2.32 c7.98 0 8.06 0.02 8.2 0.02 c2 0.16 3.54 1.88 3.54 3.88 c0 2.16 -1.74 3.9 -3.88 3.9 l-8.42 0 c-1.68 0 -3.04 -1.36 -3.04 -3.04 l0 -1.64 l11.46 0 c0.98 0.06 0.98 1.5 0 1.56 l-9.9 0 l0 0.04 c0 0.86 0.66 1.52 1.52 1.52 l8.38 0 c1.26 0 2.34 -1 2.34 -2.34 c0 -1.2 -0.9 -2.16 -2.06 -2.32 z M46.080000000000005 15.32 l0.9 -1.56 l2.72 4.68 l1.8 0 c-0.4 -0.64 -4.2 -7.14 -4.52 -7.78 l-3.92 6.8 l-1.46 2.54 l-5.4 0 c0.3 -0.5 2.32 -4.02 4.26 -7.4 c1.14 -1.98 2.4 -4.2 3.82 -6.62 l1.8 0 l-3.72 6.44 l-3.46 6.02 l1.8 0 c2.46 -4.34 4 -6.9 6.28 -10.9 c0.14 0.24 7.18 12.44 7.22 12.46 l-5.4 0 z M68.74 13.780000000000001 c-7.94 0 -8.06 -0.02 -8.16 -0.02 l-0.04 0 c-2 -0.16 -3.54 -1.86 -3.54 -3.88 c0 -2.16 1.74 -3.9 3.9 -3.9 l8.4 0 c1.68 0 3.04 1.36 3.04 3.06 l0 1.62 l-11.38 0 l-0.02 0 l-0.02 0 c-0.46 -0.02 -0.76 -0.36 -0.76 -0.78 s0.32 -0.76 0.74 -0.78 l9.88 0 l0 -0.04 c0 -0.86 -0.66 -1.52 -1.52 -1.52 l-8.36 0 c-1.28 0 -2.34 1.04 -2.34 2.34 c0 1.2 0.9 2.16 2.04 2.32 c7.98 0 8.06 0.02 8.2 0.02 c2 0.16 3.54 1.88 3.54 3.88 c0 2.16 -1.74 3.9 -3.88 3.9 l-8.42 0 c-1.68 0 -3.04 -1.36 -3.04 -3.04 l0 -1.64 l11.46 0 c0.98 0.06 0.98 1.5 0 1.56 l-9.9 0 l0 0.04 c0 0.86 0.66 1.52 1.52 1.52 l8.38 0 c1.26 0 2.34 -1 2.34 -2.34 c0 -1.2 -0.9 -2.16 -2.06 -2.32 z M75.14 10.66 l0 -4.68 l15.3 0 l0 4.68 l-3.76 0 l0 -1.56 l2.2 0 l0 -1.56 l-12.18 0 l0 1.56 l5.32 0 l-0.02 9.34 l1.56 0 l0 -9.34 l1.56 0 l0 10.9 l-4.68 0 l0 -9.34 l-5.3 0 z M97.92 15.32 l0.9 -1.56 l2.72 4.68 l1.8 0 c-0.4 -0.64 -4.2 -7.14 -4.52 -7.78 l-3.92 6.8 l-1.46 2.54 l-5.4 0 c0.3 -0.5 2.32 -4.02 4.26 -7.4 c1.14 -1.98 2.4 -4.2 3.82 -6.62 l1.8 0 l-3.72 6.44 l-3.46 6.02 l1.8 0 c2.46 -4.34 4 -6.9 6.28 -10.9 c0.14 0.24 7.18 12.44 7.22 12.46 l-5.4 0 z M121.64 5.98 l0 4.7 l-8.6 0 c-1.18 0.1 -2.08 1.12 -2.08 2.32 s0.9 2.18 2.08 2.32 l5.48 0 l0 1.56 l-5.48 0 c-2.02 -0.16 -3.62 -1.82 -3.62 -3.9 c0 -2 1.54 -3.7 3.54 -3.86 l7.12 0 l0 -1.58 l-7.04 0 l0 0.02 c-2.86 0.16 -5.14 2.52 -5.14 5.44 c0 2.9 2.28 5.28 5.14 5.44 l7.04 0 l0 -3.12 l1.56 0 l0 4.68 l-8.6 0 c-3.74 -0.16 -6.7 -3.24 -6.7 -7 c0 -3.78 2.96 -6.84 6.7 -7 z M132.14 15.16 l1.14 -1.06 l6.42 5.9 l-6.9 0 l-5.24 -4.8 l8.12 -7.66 l-2.26 0 l-5.86 5.66 l0 -5.66 l-1.56 0 l0 10.9 l2.76 0 l1.72 1.56 l-6.04 0 l0 -14.02 l4.68 0 l0 3.44 l3.68 -3.44 l6.82 0 l-9.78 9.2 l3.56 3.26 l2.3 0 z"/></g>
			</g>
		</svg>
	